<svg width="35" height="36" viewBox="0 0 35 36" fill="none" xmlns="http://www.w3.org/2000/svg"><path d="M17.5 6.994c-7.292 0-13.519 4.528-16.042 10.919 2.523 6.39 8.75 10.918 16.042 10.918 7.292 0 13.519-4.527 16.042-10.918-2.523-6.391-8.75-10.919-16.042-10.919zm0 18.198c-4.025 0-7.292-3.262-7.292-7.28 0-4.017 3.267-7.278 7.292-7.278s7.292 3.26 7.292 7.279c0 4.017-3.267 7.279-7.292 7.279zm0-11.647a4.365 4.365 0 00-4.375 4.368A4.365 4.365 0 0017.5 22.28c2.42 0 4.375-1.95 4.375-4.367a4.365 4.365 0 00-4.375-4.368z" fill="#fff"/></svg>