<svg width="80" height="83" viewBox="0 0 80 83" fill="none" xmlns="http://www.w3.org/2000/svg"><g clip-path="url(#clip0)"><path d="M79.955 18.631c.03.11.045.223.045.337v17.677c0 .462-.247.889-.648 1.119l-14.837 8.542v16.931c0 .461-.245.887-.644 1.119L32.9 82.185c-.071.04-.149.066-.226.093-.029.01-.056.027-.087.035a1.297 1.297 0 01-.66 0c-.036-.01-.068-.029-.102-.041-.07-.026-.145-.049-.213-.087L.648 64.355A1.29 1.29 0 010 63.238V10.206c0-.116.016-.229.045-.338.01-.037.032-.071.045-.108.024-.068.047-.137.082-.2.025-.042.06-.076.089-.115.037-.051.07-.104.114-.15.037-.036.086-.064.128-.096.046-.039.088-.08.141-.111h.002L16.13.172c.4-.23.89-.23 1.29 0L32.9 9.087h.003c.052.032.096.072.142.11.042.032.089.06.126.096.045.047.077.1.116.151.027.04.064.073.087.115.037.064.058.132.084.2.013.037.035.07.045.11.03.109.045.222.045.336v33.124l12.902-7.43V18.967c0-.112.016-.227.045-.335.011-.038.032-.072.045-.11.026-.067.049-.136.084-.2.024-.041.06-.075.087-.114.039-.051.07-.104.116-.15.037-.036.084-.064.126-.096.048-.039.09-.08.142-.111h.001l15.485-8.915c.399-.23.89-.23 1.289 0l15.483 8.915c.055.032.097.072.145.11.04.032.087.06.124.096.045.047.077.1.116.151.029.04.064.073.087.115.037.063.058.132.084.2.014.037.035.07.045.11zM77.419 35.9V21.2L72 24.318l-7.486 4.31v14.7l12.906-7.43h-.002zM61.936 62.492v-14.71l-7.363 4.205-21.026 12v14.848l28.389-16.343zM2.58 12.436v50.056l28.385 16.342V63.987l-14.829-8.392-.005-.003-.006-.004c-.05-.029-.092-.07-.139-.106-.04-.032-.087-.058-.122-.093l-.003-.005c-.042-.04-.071-.09-.107-.136-.032-.043-.07-.08-.096-.125l-.002-.005c-.029-.048-.047-.106-.068-.161-.02-.048-.048-.094-.06-.145v-.002c-.017-.061-.02-.126-.027-.188-.006-.049-.019-.097-.019-.145V19.865L8 15.554l-5.418-3.116v-.002zM16.775 2.78l-12.9 7.426 12.897 7.426 12.899-7.428L16.772 2.78h.003zm6.71 46.343l7.483-4.308V12.436l-5.418 3.12-7.486 4.31v32.377l5.42-3.12zm39.741-37.58l-12.898 7.426 12.898 7.426 12.898-7.428-12.898-7.424zm-1.29 17.086l-7.486-4.31-5.418-3.119v14.7l7.484 4.309 5.42 3.12v-14.7zm-29.68 33.127l18.919-10.8 9.457-5.398-12.889-7.421-14.84 8.544-13.526 7.786 12.878 7.29z" fill="#FF2D20"/></g><defs><clipPath id="clip0"><path fill="#fff" d="M0 0h80v82.5H0z"/></clipPath></defs></svg>