<svg width="80" height="80" viewBox="0 0 80 80" fill="none" xmlns="http://www.w3.org/2000/svg"><g clip-path="url(#clip0)"><path d="M5.664 39.608c0 13.45 7.863 25.073 19.264 30.58L8.623 25.78a33.68 33.68 0 00-2.96 13.829zm57.256-1.715c0-4.199-1.517-7.107-2.819-9.37-1.732-2.8-3.356-5.17-3.356-7.969 0-3.123 2.383-6.031 5.74-6.031.151 0 .295.019.443.027a34.168 34.168 0 00-23.083-8.92c-11.941 0-22.447 6.09-28.56 15.316.803.024 1.559.04 2.2.04 3.576 0 9.11-.43 9.11-.43 1.843-.109 2.06 2.582.22 2.798 0 0-1.852.217-3.913.324L31.35 60.483l7.48-22.301-5.326-14.505a62.29 62.29 0 01-3.584-.324c-1.842-.107-1.626-2.907.216-2.799 0 0 5.645.431 9.003.431 3.575 0 9.11-.431 9.11-.431 1.844-.108 2.06 2.582.22 2.799 0 0-1.856.216-3.913.324L56.91 60.203l3.41-11.325c1.477-4.7 2.601-8.076 2.601-10.985zM40.445 42.58L30.189 72.205a34.37 34.37 0 0021.007-.542 2.976 2.976 0 01-.243-.468L40.445 42.58zm29.393-19.274c.147 1.082.23 2.244.23 3.494 0 3.448-.647 7.324-2.599 12.17L57.03 68.98c10.161-5.892 16.996-16.836 16.996-29.371a33.638 33.638 0 00-4.187-16.303zM39.845 0C17.875 0 0 17.768 0 39.608c0 21.843 17.875 39.61 39.845 39.61s39.847-17.767 39.847-39.61C79.692 17.768 61.815 0 39.845 0zm0 77.402c-20.962 0-38.018-16.954-38.018-37.794 0-20.838 17.055-37.792 38.018-37.792 20.962 0 38.017 16.954 38.017 37.792 0 20.84-17.055 37.794-38.017 37.794z" fill="#464342"/></g><defs><clipPath id="clip0"><path fill="#fff" d="M0 0h80v79.216H0z"/></clipPath></defs></svg>