<svg width="53" height="75" viewBox="0 0 53 75" fill="none" xmlns="http://www.w3.org/2000/svg"><g clip-path="url(#clip0)"><path d="M4.673 0h3.401v3.34h3.135V0h3.401v10.107h-3.4V6.738H8.103v3.37h-3.43V0zm14.433 3.37h-3.002V0h9.42v3.37h-3.017v6.737h-3.401V3.37zM27.017 0h3.564l2.189 3.56L34.959 0h3.563v10.107h-3.4v-5.01L32.74 8.73l-2.38-3.632v5.01h-3.343V0zm13.191 0h3.401v6.768h4.821v3.34h-8.222" fill="#fff"/><path d="M4.555 68.994l-4.88-54.258h53.65l-4.88 54.229L26.456 75" fill="#E44D26"/><path d="M26.5 70.386V19.189h21.93l-4.184 46.29" fill="#F16529"/><path d="M9.642 25.825H26.5v6.65h-9.494l.621 6.812H26.5v6.636H11.475L9.642 25.825zm2.13 23.438h6.742l.474 5.317 7.512 1.992v6.944l-13.783-3.809" fill="#EBEBEB"/><path d="M43.3 25.825H26.47v6.65h16.208l.621-6.65zm-1.228 13.462H26.471v6.65h8.281l-.784 8.643-7.497 1.992v6.914l13.753-3.779" fill="#fff"/></g><defs><clipPath id="clip0"><path fill="#fff" d="M0 0h53v75H0z"/></clipPath></defs></svg>