<svg width="55" height="77" viewBox="0 0 55 77" fill="none" xmlns="http://www.w3.org/2000/svg"><path d="M55 14.993H0l5.156 55.256 22.34 6.261 22.342-6.261L55 14.993z" fill="#E6A329"/><path d="M27.497 19.495v52.333l18.101-5.068 4.404-47.265H27.497z" fill="#F1BF22"/><path d="M41.897 26.274H14.066l-1.939 20.688.04-.129h23.645l-.771 8.753-7.544 2.146-7.656-2.18-.458-5.297h-6.95l.992 10.586 14.072 3.948 14.078-3.948 1.938-20.777H18.42l.322-6.923h17.41l.26 3.967h7.012l-1.527-10.834z" fill="#fff"/><path d="M27.503 26.274H14.066l-1.939 20.688.04-.129h15.336v-6.748h-8.105l.322-6.922h7.783v-6.89zm-8.105 23.981h-6.964l.99 10.58 14.073 3.942v-7.04l-7.656-2.184-.443-5.298z" fill="#EBEBEB"/><path d="M22.149 6.843h-4.896v3.474h8.399V0h-3.503v6.843zM37.745.055H29.21v3.611c1.14 1.127 1.734 1.668 3.413 3.3H29.21v3.292h8.535V6.973l-3.413-3.3h3.413V.055z" fill="#fff"/></svg>