<svg width="20" height="22" viewBox="0 0 20 22" fill="none" xmlns="http://www.w3.org/2000/svg"><path d="M17.646 11.787c.043-.322.064-.653.064-1.007a6.19 6.19 0 00-.075-1.006l2.174-1.692a.524.524 0 00.128-.654l-2.056-3.555a.523.523 0 00-.631-.235l-2.56 1.028a7.564 7.564 0 00-1.734-1.007L12.57.939A.518.518 0 0012.056.5H7.944a.507.507 0 00-.503.44l-.386 2.719c-.632.257-1.21.61-1.735 1.007L2.761 3.638a.511.511 0 00-.632.235L.084 7.428c-.129.225-.086.504.128.654l2.174 1.692a6.285 6.285 0 00-.096 1.006c0 .332.021.686.075 1.007L.19 13.479a.525.525 0 00-.129.653l2.057 3.555c.128.236.396.31.631.236l2.56-1.028c.535.407 1.103.75 1.734 1.006l.386 2.72c.053.257.257.44.514.44h4.112a.5.5 0 00.503-.44l.386-2.72c.632-.257 1.21-.6 1.735-1.006l2.559 1.028a.51.51 0 00.632-.236l2.056-3.555c.128-.236.075-.503-.129-.653l-2.152-1.692zM10 14.635a3.866 3.866 0 01-3.855-3.855A3.866 3.866 0 0110 6.925a3.866 3.866 0 013.855 3.855A3.866 3.866 0 0110 14.635z" fill="#fff"/></svg>