<svg width="20" height="20" viewBox="0 0 20 20" fill="none" xmlns="http://www.w3.org/2000/svg"><path d="M19.2 0H.8a.8.8 0 00-.8.8v18.4a.8.8 0 00.8.8h18.4a.8.8 0 00.8-.8V.8a.8.8 0 00-.8-.8zm-9.172 10.152l-4.8 4.026a.199.199 0 01-.328-.153v-1.568a.2.2 0 01.072-.152L7.718 10 4.973 7.695a.19.19 0 01-.073-.152V5.975c0-.17.197-.262.327-.152l4.8 4.022a.198.198 0 010 .307zm5.072 3.873c0 .11-.085.2-.188.2h-4.625c-.102 0-.187-.09-.187-.2v-1.2c0-.11.085-.2.188-.2h4.624c.103 0 .188.09.188.2v1.2z" fill="#fff"/></svg>