<svg width="20" height="20" viewBox="0 0 20 20" fill="none" xmlns="http://www.w3.org/2000/svg"><path d="M1.442 4.375v13.75c-.007.24.041.48.141.704.1.225.25.43.442.604s.42.314.675.411c.254.097.527.15.805.156h13.148a2.42 2.42 0 00.816-.147 2.15 2.15 0 00.687-.41c.195-.174.349-.38.451-.607.102-.226.152-.468.145-.711V4.375H1.442zm6.491 12.5H6.491V7.5h1.442v9.375zm5.77 0h-1.442V7.5h1.442v9.375zm5.576-15h-5.575V1.25c0-.332-.152-.65-.423-.884A1.562 1.562 0 0012.261 0H7.79a1.53 1.53 0 00-.928.408 1.16 1.16 0 00-.37.842v.625H.721a.781.781 0 00-.51.183A.586.586 0 000 2.5c0 .166.076.325.211.442a.781.781 0 00.51.183H19.28a.781.781 0 00.51-.183A.586.586 0 0020 2.5a.586.586 0 00-.211-.442.781.781 0 00-.51-.183z" fill="#fff"/></svg>