<svg width="100" height="101" viewBox="0 0 100 101" fill="none" xmlns="http://www.w3.org/2000/svg"><g clip-path="url(#clip0)"><g opacity=".6"><path d="M94.875 57.532h-7.969a10.952 10.952 0 00-6.193 1.928 10.922 10.922 0 00-4.01 5.091 15.68 15.68 0 01-5.74 7.343 15.723 15.723 0 01-8.9 2.796h-3.126v-3.12a1.558 1.558 0 00-.884-1.398 1.566 1.566 0 00-1.647.182L40.781 82.832a1.56 1.56 0 000 2.433l15.625 12.478a1.564 1.564 0 002.532-1.216v-3.12h3.124c9.117 0 17.86-3.615 24.307-10.05a34.285 34.285 0 0010.069-24.265 1.558 1.558 0 00-1.563-1.56z" fill="#C4A2FC"/><path d="M94.875 57.532h-7.969a10.952 10.952 0 00-6.193 1.928 10.922 10.922 0 00-4.01 5.091 15.68 15.68 0 01-5.74 7.343 15.723 15.723 0 01-8.9 2.796h-3.126v-3.12a1.558 1.558 0 00-.884-1.398 1.566 1.566 0 00-1.647.182L40.781 82.832a1.56 1.56 0 000 2.433l15.625 12.478a1.564 1.564 0 002.532-1.216v-3.12h3.124c9.117 0 17.86-3.615 24.307-10.05a34.285 34.285 0 0010.069-24.265 1.558 1.558 0 00-1.563-1.56z" fill="url(#paint0_linear)"/><path d="M47.422 53.633a15.602 15.602 0 015.73-7.357 15.644 15.644 0 018.91-2.782h3.126v3.12a1.558 1.558 0 00.888 1.412 1.565 1.565 0 001.658-.196L83.36 35.352a1.56 1.56 0 000-2.433L67.734 20.441a1.563 1.563 0 00-2.546 1.216v3.12h-3.126a34.406 34.406 0 00-24.306 10.05 34.285 34.285 0 00-10.069 24.265 1.558 1.558 0 001.563 1.56h7.969a10.952 10.952 0 006.193-1.928 10.922 10.922 0 004.01-5.091z" fill="#C4A2FC"/><path d="M47.422 53.633a15.602 15.602 0 015.73-7.357 15.644 15.644 0 018.91-2.782h3.126v3.12a1.558 1.558 0 00.888 1.412 1.565 1.565 0 001.658-.196L83.36 35.352a1.56 1.56 0 000-2.433L67.734 20.441a1.563 1.563 0 00-2.546 1.216v3.12h-3.126a34.406 34.406 0 00-24.306 10.05 34.285 34.285 0 00-10.069 24.265 1.558 1.558 0 001.563 1.56h7.969a10.952 10.952 0 006.193-1.928 10.922 10.922 0 004.01-5.091z" fill="url(#paint1_linear)"/><path d="M62.063 65.331a6.245 6.245 0 006.25-6.24c0-3.445-2.799-6.238-6.25-6.238a6.244 6.244 0 00-6.25 6.239 6.244 6.244 0 006.25 6.239z" fill="#C4A2FC"/><path d="M62.063 65.331a6.245 6.245 0 006.25-6.24c0-3.445-2.799-6.238-6.25-6.238a6.244 6.244 0 00-6.25 6.239 6.244 6.244 0 006.25 6.239z" fill="url(#paint2_linear)"/></g><path d="M37.5 2.94a37.547 37.547 0 00-20.834 6.309 37.45 37.45 0 00-13.811 16.8A37.374 37.374 0 00.72 47.678a37.415 37.415 0 0010.262 19.167A37.52 37.52 0 0030.184 77.09a37.561 37.561 0 0021.667-2.13 37.486 37.486 0 0016.83-13.788 37.387 37.387 0 00-4.665-47.268A37.533 37.533 0 0037.5 2.94zm0 71.75a34.418 34.418 0 01-19.098-5.784 34.328 34.328 0 01-12.66-15.4A34.26 34.26 0 013.786 33.68a34.297 34.297 0 019.407-17.57 34.394 34.394 0 0117.6-9.391 34.43 34.43 0 0119.862 1.953A34.363 34.363 0 0166.082 21.31a34.272 34.272 0 01-4.275 43.329A34.406 34.406 0 0137.5 74.689z" fill="#fff"/><path d="M18.75 21.626a26.586 26.586 0 0118.75-7.734 26.586 26.586 0 0118.75 7.734 1.564 1.564 0 002.665-1.113 1.559 1.559 0 00-.462-1.102 29.714 29.714 0 00-20.984-8.672c-7.87 0-15.418 3.12-20.985 8.672a1.582 1.582 0 001.15 2.69c.42-.004.822-.175 1.116-.475zm37.5 37.497a26.586 26.586 0 01-18.75 7.734 26.586 26.586 0 01-18.75-7.734 1.564 1.564 0 00-2.203 0 1.558 1.558 0 000 2.2 29.714 29.714 0 0020.984 8.672c7.87 0 15.418-3.12 20.985-8.673a1.559 1.559 0 000-2.199 1.563 1.563 0 00-2.266 0zm-12.266-7.83a1.564 1.564 0 001.563-1.56V31.016a1.558 1.558 0 00-1.563-1.56 1.564 1.564 0 00-1.562 1.56v7.471h-9.844v-7.471a1.559 1.559 0 00-1.562-1.56 1.564 1.564 0 00-1.563 1.56v18.717a1.558 1.558 0 001.563 1.56 1.564 1.564 0 001.562-1.56v-8.126h9.844v8.126a1.559 1.559 0 001.562 1.56zm-17.75-14.989a6.886 6.886 0 00-2.056-4.862 6.907 6.907 0 00-4.897-1.986h-5.218a1.564 1.564 0 00-1.563 1.56v18.717a1.558 1.558 0 001.563 1.56 1.564 1.564 0 001.562-1.56v-6.582h3.656a6.899 6.899 0 004.902-1.982 6.879 6.879 0 002.051-4.865zm-10.593 0v-3.728h3.656a3.74 3.74 0 013.668 2.238 3.723 3.723 0 01-2.167 4.991 3.74 3.74 0 01-1.501.21h-3.672v-3.711h.016zm39.906-6.848h-5.219a1.564 1.564 0 00-1.562 1.56v18.717a1.558 1.558 0 001.562 1.56 1.564 1.564 0 001.563-1.56v-6.582h3.656a6.87 6.87 0 005.06-1.884 6.845 6.845 0 001.573-7.651 6.846 6.846 0 00-3.91-3.72 6.87 6.87 0 00-2.723-.424v-.016zm0 10.56h-3.64v-7.44h3.656a3.74 3.74 0 013.667 2.238 3.723 3.723 0 01-2.166 4.99 3.74 3.74 0 01-1.502.212h-.015z" fill="#fff"/></g><defs><linearGradient id="paint0_linear" x1="68.317" y1="57.532" x2="68.317" y2="98.079" gradientUnits="userSpaceOnUse"><stop stop-color="#009FFF"/><stop offset=".818" stop-color="#FC466B"/></linearGradient><linearGradient id="paint1_linear" x1="55.816" y1="20.092" x2="55.816" y2="60.652" gradientUnits="userSpaceOnUse"><stop stop-color="#009FFF"/><stop offset=".818" stop-color="#FC466B"/></linearGradient><linearGradient id="paint2_linear" x1="62.063" y1="52.853" x2="62.063" y2="65.331" gradientUnits="userSpaceOnUse"><stop stop-color="#009FFF"/><stop offset=".818" stop-color="#FC466B"/></linearGradient><clipPath id="clip0"><path fill="#fff" transform="translate(0 .6)" d="M0 0h100v99.826H0z"/></clipPath></defs></svg>