<svg width="100" height="100" viewBox="0 0 100 100" fill="none" xmlns="http://www.w3.org/2000/svg"><g opacity=".6"><path d="M97.438 38.281v-4.687a4.688 4.688 0 00-4.688-4.688H24a4.688 4.688 0 00-4.688 4.688v4.687h78.126z" fill="#009FFF"/><path d="M19.313 41.406V92.97A4.688 4.688 0 0024 97.656h68.75a4.687 4.687 0 004.688-4.687V41.406H19.311zm23.437 50a1.562 1.562 0 01-1.563 1.563H25.563A1.563 1.563 0 0124 91.406V75.781a1.562 1.562 0 011.563-1.562h15.625a1.563 1.563 0 011.562 1.562v15.625zm0-21.875a1.562 1.562 0 01-1.563 1.563H25.563A1.563 1.563 0 0124 69.53V53.906a1.562 1.562 0 011.563-1.562h15.625a1.563 1.563 0 011.562 1.562v15.625zM41.187 49.22H25.563a1.563 1.563 0 010-3.125h15.625a1.563 1.563 0 010 3.125zM67.75 92.97H49a1.563 1.563 0 010-3.125h18.75a1.563 1.563 0 010 3.125zm0-6.25H49a1.563 1.563 0 010-3.125h18.75a1.563 1.563 0 010 3.125zm1.563-7.813a1.562 1.562 0 01-1.563 1.563H49a1.563 1.563 0 01-1.563-1.563v-31.25A1.562 1.562 0 0149 46.094h18.75a1.563 1.563 0 011.563 1.562v31.25zm23.437 12.5a1.562 1.562 0 01-1.563 1.563H75.564A1.563 1.563 0 0174 91.406V75.781a1.562 1.562 0 011.563-1.562h15.624a1.563 1.563 0 011.563 1.562v15.625zm0-21.875a1.562 1.562 0 01-1.563 1.563H75.564A1.563 1.563 0 0174 69.53V53.906a1.562 1.562 0 011.563-1.562h15.624a1.563 1.563 0 011.563 1.562v15.625zM91.187 49.22H77.126a1.563 1.563 0 010-3.125h14.063a1.563 1.563 0 010 3.125z" fill="#C4A2FC"/><path d="M19.313 41.406V92.97A4.688 4.688 0 0024 97.656h68.75a4.687 4.687 0 004.688-4.687V41.406H19.311zm23.437 50a1.562 1.562 0 01-1.563 1.563H25.563A1.563 1.563 0 0124 91.406V75.781a1.562 1.562 0 011.563-1.562h15.625a1.563 1.563 0 011.562 1.562v15.625zm0-21.875a1.562 1.562 0 01-1.563 1.563H25.563A1.563 1.563 0 0124 69.53V53.906a1.562 1.562 0 011.563-1.562h15.625a1.563 1.563 0 011.562 1.562v15.625zM41.187 49.22H25.563a1.563 1.563 0 010-3.125h15.625a1.563 1.563 0 010 3.125zM67.75 92.97H49a1.563 1.563 0 010-3.125h18.75a1.563 1.563 0 010 3.125zm0-6.25H49a1.563 1.563 0 010-3.125h18.75a1.563 1.563 0 010 3.125zm1.563-7.813a1.562 1.562 0 01-1.563 1.563H49a1.563 1.563 0 01-1.563-1.563v-31.25A1.562 1.562 0 0149 46.094h18.75a1.563 1.563 0 011.563 1.562v31.25zm23.437 12.5a1.562 1.562 0 01-1.563 1.563H75.564A1.563 1.563 0 0174 91.406V75.781a1.562 1.562 0 011.563-1.562h15.624a1.563 1.563 0 011.563 1.562v15.625zm0-21.875a1.562 1.562 0 01-1.563 1.563H75.564A1.563 1.563 0 0174 69.53V53.906a1.562 1.562 0 011.563-1.562h15.624a1.563 1.563 0 011.563 1.562v15.625zM91.187 49.22H77.126a1.563 1.563 0 010-3.125h14.063a1.563 1.563 0 010 3.125z" fill="url(#paint0_linear)"/><path d="M19.313 41.406V92.97A4.688 4.688 0 0024 97.656h68.75a4.687 4.687 0 004.688-4.687V41.406H19.311zm23.437 50a1.562 1.562 0 01-1.563 1.563H25.563A1.563 1.563 0 0124 91.406V75.781a1.562 1.562 0 011.563-1.562h15.625a1.563 1.563 0 011.562 1.562v15.625zm0-21.875a1.562 1.562 0 01-1.563 1.563H25.563A1.563 1.563 0 0124 69.53V53.906a1.562 1.562 0 011.563-1.562h15.625a1.563 1.563 0 011.562 1.562v15.625zM41.187 49.22H25.563a1.563 1.563 0 010-3.125h15.625a1.563 1.563 0 010 3.125zM67.75 92.97H49a1.563 1.563 0 010-3.125h18.75a1.563 1.563 0 010 3.125zm0-6.25H49a1.563 1.563 0 010-3.125h18.75a1.563 1.563 0 010 3.125zm1.563-7.813a1.562 1.562 0 01-1.563 1.563H49a1.563 1.563 0 01-1.563-1.563v-31.25A1.562 1.562 0 0149 46.094h18.75a1.563 1.563 0 011.563 1.562v31.25zm23.437 12.5a1.562 1.562 0 01-1.563 1.563H75.564A1.563 1.563 0 0174 91.406V75.781a1.562 1.562 0 011.563-1.562h15.624a1.563 1.563 0 011.563 1.562v15.625zm0-21.875a1.562 1.562 0 01-1.563 1.563H75.564A1.563 1.563 0 0174 69.53V53.906a1.562 1.562 0 011.563-1.562h15.624a1.563 1.563 0 011.563 1.562v15.625zM91.187 49.22H77.126a1.563 1.563 0 010-3.125h14.063a1.563 1.563 0 010 3.125z" fill="url(#paint1_linear)"/></g><path d="M24.922 61.221a8.156 8.156 0 100 16.313 8.156 8.156 0 000-16.313zm0 12.688a4.531 4.531 0 110-9.062 4.531 4.531 0 010 9.062zm34.437-12.688a8.156 8.156 0 100 16.313 8.156 8.156 0 000-16.313zm0 12.688a4.531 4.531 0 110-9.062 4.531 4.531 0 010 9.062zm18.396-60.265a2.266 2.266 0 00-1.45-.725l-58.996-.816-1.631-4.984A8.337 8.337 0 007.884 1.5H1.812a1.812 1.812 0 100 3.625h6.072a4.713 4.713 0 014.35 3.172l11.51 34.709-.907 2.084a8.7 8.7 0 00.816 7.884 8.428 8.428 0 006.797 3.807h35.253a1.813 1.813 0 000-3.625H30.45a4.622 4.622 0 01-3.806-2.175 4.984 4.984 0 01-.454-4.35l.726-1.632 38.152-3.987a9.969 9.969 0 008.61-7.612l4.35-18.216a1.54 1.54 0 00-.273-1.54zm-7.612 18.94a6.162 6.162 0 01-5.528 4.803l-37.7 3.897-8.428-25.556 55.553.816-3.897 16.04z" fill="#fff"/><defs><linearGradient id="paint0_linear" x1="58.375" y1="41.406" x2="58.375" y2="97.656" gradientUnits="userSpaceOnUse"><stop stop-color="#fff"/><stop offset="1" stop-color="#fff" stop-opacity="0"/></linearGradient><linearGradient id="paint1_linear" x1="58.375" y1="41.406" x2="58.375" y2="97.656" gradientUnits="userSpaceOnUse"><stop stop-color="#009FFF"/><stop offset=".719" stop-color="#FC466B"/></linearGradient></defs></svg>