<svg width="100" height="100" viewBox="0 0 100 100" fill="none" xmlns="http://www.w3.org/2000/svg">
<g opacity="0.6">
<path d="M79.1664 26.7083L73.2914 20.8333L49.9997 44.125L26.708 20.8333L20.833 26.7083L44.1247 50L20.833 73.2917L26.708 79.1667L49.9997 55.875L73.2914 79.1667L79.1664 73.2917L55.8747 50L79.1664 26.7083Z" fill="white"/>
<path d="M79.1664 26.7083L73.2914 20.8333L49.9997 44.125L26.708 20.8333L20.833 26.7083L44.1247 50L20.833 73.2917L26.708 79.1667L49.9997 55.875L73.2914 79.1667L79.1664 73.2917L55.8747 50L79.1664 26.7083Z" fill="#FC466B"/>
<path d="M79.1664 26.7083L73.2914 20.8333L49.9997 44.125L26.708 20.8333L20.833 26.7083L44.1247 50L20.833 73.2917L26.708 79.1667L49.9997 55.875L73.2914 79.1667L79.1664 73.2917L55.8747 50L79.1664 26.7083Z" fill="url(#paint0_linear)" fill-opacity="0.6"/>
</g>
<defs>
<linearGradient id="paint0_linear" x1="49.9997" y1="20.8333" x2="49.9997" y2="79.1667" gradientUnits="userSpaceOnUse">
<stop offset="0.25" stop-color="#009FFF"/>
<stop offset="1" stop-color="#FC466B"/>
</linearGradient>
</defs>
</svg>
