<svg width="100" height="100" viewBox="0 0 100 100" fill="none" xmlns="http://www.w3.org/2000/svg"><g opacity=".6"><path d="M79.166 26.708l-5.875-5.875L50 44.125 26.708 20.833l-5.875 5.875L44.125 50 20.833 73.292l5.875 5.875L50 55.875l23.29 23.292 5.875-5.875L55.875 50l23.291-23.292z" fill="#fff"/><path d="M79.166 26.708l-5.875-5.875L50 44.125 26.708 20.833l-5.875 5.875L44.125 50 20.833 73.292l5.875 5.875L50 55.875l23.29 23.292 5.875-5.875L55.875 50l23.291-23.292z" fill="#FC466B"/><path d="M79.166 26.708l-5.875-5.875L50 44.125 26.708 20.833l-5.875 5.875L44.125 50 20.833 73.292l5.875 5.875L50 55.875l23.29 23.292 5.875-5.875L55.875 50l23.291-23.292z" fill="url(#paint0_linear)" fill-opacity=".6"/></g><defs><linearGradient id="paint0_linear" x1="50" y1="20.833" x2="50" y2="79.167" gradientUnits="userSpaceOnUse"><stop offset=".25" stop-color="#009FFF"/><stop offset="1" stop-color="#FC466B"/></linearGradient></defs></svg>