<svg width="36" height="36" viewBox="0 0 36 36" fill="none" xmlns="http://www.w3.org/2000/svg"><path d="M18 36c9.941 0 18-8.059 18-18S27.941 0 18 0 0 8.059 0 18s8.059 18 18 18z" fill="#FC466B"/><path d="M6.203 11.002v13.98l6.817-7.018-6.817-6.962zm23.594 0v13.98l-6.783-6.99 6.783-6.99zm-23.078-.633h22.518l-8.85 9.215a3.34 3.34 0 01-4.818 0l-8.85-9.215z" fill="#fff"/><path d="M20.897 20.074a4.068 4.068 0 01-2.92 1.244 4.067 4.067 0 01-2.919-1.244l-1.5-1.563-6.84 7.12h22.519l-6.839-7.12-1.5 1.563z" fill="#fff"/></svg>