<svg width="36" height="37" viewBox="0 0 36 37" fill="none" xmlns="http://www.w3.org/2000/svg"><path d="M34 19.5c0 9.665-7.163 17-16 17s-16-7.335-16-17S9.163 2 18 2s16 7.835 16 17.5z" fill="#fff"/><path d="M17.998.375C8.059.375 0 8.465 0 18.447a18.07 18.07 0 0012.312 17.147c.9.166 1.229-.392 1.229-.871 0-.43-.016-1.566-.025-3.073-5.007 1.09-6.064-2.424-6.064-2.424-.817-2.088-1.998-2.643-1.998-2.643-1.636-1.121.122-1.098.122-1.098 1.806.128 2.756 1.863 2.756 1.863 1.606 2.76 4.214 1.964 5.24 1.5.162-1.168.628-1.964 1.143-2.416-3.996-.457-8.199-2.007-8.199-8.93 0-1.974.702-3.587 1.854-4.851-.187-.457-.803-2.296.176-4.782 0 0 1.511-.486 4.95 1.852 1.435-.4 2.974-.6 4.506-.607a17.2 17.2 0 014.507.61c3.436-2.338 4.945-1.852 4.945-1.852.982 2.488.365 4.324.18 4.78 1.155 1.265 1.85 2.879 1.85 4.852 0 6.941-4.208 8.469-8.217 8.916.646.558 1.222 1.661 1.222 3.346 0 2.417-.023 4.365-.023 4.957 0 .484.324 1.046 1.238.869A18.072 18.072 0 0036 18.447C36 8.466 27.94.375 17.998.375z" fill="#5C6BC0"/></svg>