<svg width="36" height="36" viewBox="0 0 36 36" fill="none" xmlns="http://www.w3.org/2000/svg"><g clip-path="url(#clip0)"><path d="M18 35.999c9.941 0 18-8.059 18-18s-8.059-18-18-18-18 8.059-18 18 8.059 18 18 18z" fill="#007AB9"/><path d="M28.755 19.448v7.421h-4.303v-6.924c0-1.738-.621-2.925-2.179-2.925-1.189 0-1.895.8-2.207 1.573-.113.277-.142.66-.142 1.049v7.227H15.62s.058-11.727 0-12.94h4.303v1.833l-.029.043h.03v-.043c.57-.88 1.59-2.137 3.877-2.137 2.83 0 4.953 1.85 4.953 5.823zM11.12 7.691c-1.472 0-2.435.966-2.435 2.235 0 1.243.935 2.237 2.378 2.237h.028c1.5 0 2.434-.994 2.434-2.237-.029-1.269-.933-2.235-2.405-2.235zM8.94 26.869h4.302V13.93H8.941v12.94z" fill="#F1F2F2"/></g><defs><clipPath id="clip0"><path fill="#fff" d="M0 0h36v36H0z"/></clipPath></defs></svg>