<svg width="31" height="31" viewBox="0 0 31 31" fill="none" xmlns="http://www.w3.org/2000/svg"><path d="M15.486.917C7.435.917.915 7.45.915 15.5s6.52 14.583 14.57 14.583c8.064 0 14.597-6.533 14.597-14.583S23.55.917 15.486.917zm10.106 8.75H21.29a22.827 22.827 0 00-2.013-5.192 11.71 11.71 0 016.315 5.192zM15.5 3.892a20.544 20.544 0 012.785 5.775h-5.57A20.541 20.541 0 0115.5 3.892zM4.213 18.417a12.02 12.02 0 01-.38-2.917c0-1.006.146-1.983.38-2.917h4.929c-.117.963-.204 1.925-.204 2.917 0 .992.087 1.954.204 2.917h-4.93zm1.195 2.916H9.71a22.825 22.825 0 002.013 5.192 11.648 11.648 0 01-6.315-5.192zM9.71 9.667H5.409a11.648 11.648 0 016.315-5.192A22.822 22.822 0 009.71 9.667zm5.79 17.441a20.542 20.542 0 01-2.785-5.775h5.57a20.544 20.544 0 01-2.785 5.775zm3.413-8.691h-6.825c-.132-.963-.234-1.925-.234-2.917 0-.992.102-1.969.234-2.917h6.825c.13.948.233 1.925.233 2.917 0 .992-.102 1.954-.233 2.917zm.364 8.108a22.825 22.825 0 002.013-5.192h4.302a11.71 11.71 0 01-6.315 5.192zm2.581-8.108c.117-.963.205-1.925.205-2.917 0-.992-.088-1.954-.205-2.917h4.93c.233.934.379 1.91.379 2.917 0 1.006-.146 1.983-.38 2.917h-4.929z" fill="#fff"/></svg>