<svg width="36" height="36" viewBox="0 0 36 36" fill="none" xmlns="http://www.w3.org/2000/svg"><path d="M18 36c9.941 0 18-8.059 18-18S27.941 0 18 0 0 8.059 0 18s8.059 18 18 18z" fill="#4176FA"/><path d="M24.453 14.87c-5.199 0-5.206 5.179-5.206 5.206 0 0-.356 5.186 5.206 5.186 0 0 4.638.263 4.638-3.61H26.71s.079 1.458-2.178 1.458c0 0-2.382.159-2.382-2.355h7.02s.773-5.885-4.717-5.885zm-2.33 4.07s.291-2.085 2.383-2.085c2.098 0 2.065 2.085 2.065 2.085h-4.447zm-5.95-1.332s2.065-.152 2.065-2.58c0-2.421-1.689-3.61-3.833-3.61H7.35v13.56h7.053s4.309.132 4.309-4.005c0 0 .185-3.365-2.54-3.365zm-5.714-3.78h3.945s.957 0 .957 1.41c0 1.413-.56 1.617-1.2 1.617h-3.702v-3.028zm3.748 8.741h-3.748V18.94h3.945s1.432-.013 1.426 1.867c0 1.584-1.062 1.75-1.623 1.762zm7.33-10.352v1.67h5.595v-1.67h-5.595z" fill="#F1F2F2"/></svg>