<svg width="1920" height="1543" viewBox="0 0 1920 1543" fill="none" xmlns="http://www.w3.org/2000/svg"><g opacity=".6"><path d="M41.466 709.013c-.16-23.72 8.022-43.711 24.547-59.973s36.129-24.47 58.812-24.623c31.251-.211 56.81 15.01 76.676 45.663l113.858 177.14c4.587 7.54 9.156 12.304 13.707 14.292 4.553 2.492 9.35 3.722 14.391 3.688 6.553-.044 12.332-2.607 17.339-7.688 5.006-5.081 7.482-11.658 7.428-19.733l-1.323-196.069 59.731-.403 1.466 217.265c.157 23.216-8.029 42.702-24.558 58.459-16.021 16.259-35.625 24.466-58.811 24.623-31.252.211-56.809-14.758-76.672-44.906L154.2 719.608c-4.588-7.54-9.159-12.556-13.712-15.049-4.55-1.988-9.346-2.965-14.386-2.931-6.553.044-12.333 2.607-17.339 7.688-5.007 5.081-7.481 11.911-7.423 20.49l1.394 206.667-59.73.403-1.538-227.863zm-66.174.441c-.16-23.719-8.612-43.596-25.355-59.633-16.743-16.036-36.456-23.978-59.138-23.825-31.252.211-56.603 15.775-76.054 46.691l-111.457 178.648c-4.485 7.6-8.989 12.425-13.512 14.474-4.52 2.554-9.3 3.848-14.341 3.882-6.552.044-12.366-2.44-17.441-7.452-5.074-5.013-7.639-11.556-7.693-19.63l-1.323-196.056-59.731.403 1.466 217.251c.156 23.214 8.604 42.586 25.344 58.118 16.239 16.04 35.951 23.982 59.138 23.825 31.252-.21 56.605-15.522 76.059-45.933l111.457-178.649c4.485-7.6 8.988-12.677 13.507-15.231 4.523-2.049 9.305-3.091 14.346-3.125 6.552-.044 12.366 2.44 17.44 7.453 5.075 5.012 7.642 11.808 7.7 20.387l1.394 206.653 59.73-.403-1.536-227.848z" fill="#FC466B"/><path d="M753.5 771.5c0 424.78-334.066 769-746 769s-746-344.22-746-769c0-424.779 334.066-769 746-769s746 344.221 746 769z" stroke="url(#paint0_linear)" stroke-width="5"/><path d="M1874.53 709.013c.16-23.72-8.02-43.711-24.54-59.973-16.53-16.262-36.13-24.47-58.81-24.623-31.26-.211-56.82 15.01-76.68 45.663l-113.86 177.14c-4.59 7.54-9.16 12.304-13.71 14.292-4.55 2.492-9.35 3.722-14.39 3.688-6.55-.044-12.33-2.607-17.34-7.688-5-5.081-7.48-11.658-7.42-19.733l1.32-196.069-59.73-.403-1.47 217.265c-.15 23.216 8.03 42.702 24.56 58.459 16.02 16.259 35.62 24.466 58.81 24.623 31.25.211 56.81-14.758 76.67-44.906l113.86-177.14c4.59-7.54 9.16-12.556 13.71-15.049 4.55-1.988 9.35-2.965 14.39-2.931 6.55.044 12.33 2.607 17.34 7.688 5 5.081 7.48 11.911 7.42 20.49l-1.39 206.667 59.73.403 1.53-227.863zm66.18.441c.16-23.719 8.61-43.596 25.35-59.633 16.75-16.036 36.46-23.978 59.14-23.825 31.25.211 56.6 15.775 76.05 46.691l111.46 178.648c4.49 7.6 8.99 12.425 13.51 14.474 4.52 2.554 9.3 3.848 14.34 3.882 6.56.044 12.37-2.44 17.45-7.452 5.07-5.013 7.63-11.556 7.69-19.63l1.32-196.056 59.73.403-1.46 217.251c-.16 23.214-8.61 42.586-25.35 58.118-16.24 16.04-35.95 23.982-59.14 23.825-31.25-.21-56.6-15.522-76.05-45.933l-111.46-178.649c-4.49-7.6-8.99-12.677-13.51-15.231-4.52-2.049-9.3-3.091-14.34-3.125-6.56-.044-12.37 2.44-17.44 7.453-5.08 5.012-7.65 11.808-7.7 20.387l-1.4 206.653-59.73-.403 1.54-227.848z" fill="#FC466B"/><path d="M1162.5 771.5c0 424.78 334.07 769 746 769s746-344.22 746-769c0-424.779-334.07-769-746-769s-746 344.221-746 769z" stroke="url(#paint1_linear)" stroke-width="5"/></g><defs><linearGradient id="paint0_linear" x1="-740.999" y1="771.5" x2="756.001" y2="771.5" gradientUnits="userSpaceOnUse"><stop offset=".5" stop-color="#16BFFD"/><stop offset=".714" stop-color="#FC466B"/></linearGradient><linearGradient id="paint1_linear" x1="2657" y1="771.5" x2="1160" y2="771.5" gradientUnits="userSpaceOnUse"><stop offset=".5" stop-color="#16BFFD"/><stop offset=".714" stop-color="#FC466B"/></linearGradient></defs></svg>