<svg width="54" height="77" viewBox="0 0 54 77" fill="none" xmlns="http://www.w3.org/2000/svg"><path d="M48.828 70.681L26.94 76.638 5.05 70.68 0 15.382h53.88l-5.052 55.3z" fill="#2062AF"/><path d="M26.999 19.86v52.027l.05.014 17.713-4.82L48.85 19.86H27z" fill="#3C9CD7"/><path d="M14.66 7.255V3.964h4.752V.362h-8.316v10.18h8.316V7.255H14.66zm13.3-3.291h3.322V.362h-8.317v3.602c1.113 1.124 1.693 1.663 3.302 3.289l-3.302.003v3.286h8.317V7.255L27.96 3.964zm11.787 0h3.322V.362h-8.317v3.602c1.113 1.124 1.693 1.663 3.303 3.289l-3.303.003v3.286h8.317V7.255l-3.322-3.291zM26.98 33.687l-15.665 6.594.519 6.528 15.147-6.545 16.112-6.961.668-6.679-16.78 7.063z" fill="#fff"/><path d="M11.315 40.28l.519 6.53 15.147-6.546v-6.577l-15.667 6.594z" fill="url(#paint0_linear)"/><path d="M43.76 26.625l-16.78 7.062v6.577l16.112-6.961.668-6.678z" fill="url(#paint1_linear)"/><path d="M11.338 40.281l.52 6.528 23.24.075-.52 8.705-7.647 2.175-7.352-1.876-.445-5.402h-6.831l.891 10.43 13.811 4.127 13.736-4.052 1.782-20.71H11.338z" fill="url(#paint2_linear)"/><path opacity=".05" d="M26.98 40.281H11.316l.519 6.528 15.147.05V40.28zm0 17.462l-.074.021-7.35-1.875-.446-5.403h-6.83l.89 10.43 13.81 4.127v-7.3z" fill="#000"/><path d="M9.902 26.625H43.76l-.668 6.678H10.719l-.817-6.678z" fill="url(#paint3_linear)"/><path opacity=".05" d="M26.98 26.625H9.901l.817 6.678h16.26v-6.678z" fill="#000"/><defs><linearGradient id="paint0_linear" x1="19.148" y1="46.809" x2="19.148" y2="33.687" gradientUnits="userSpaceOnUse"><stop offset=".387" stop-color="#D1D3D4" stop-opacity="0"/><stop offset="1" stop-color="#D1D3D4"/></linearGradient><linearGradient id="paint1_linear" x1="35.369" y1="40.265" x2="35.369" y2="26.625" gradientUnits="userSpaceOnUse"><stop offset=".387" stop-color="#D1D3D4" stop-opacity="0"/><stop offset="1" stop-color="#D1D3D4"/></linearGradient><linearGradient id="paint2_linear" x1="11.338" y1="52.662" x2="42.523" y2="52.662" gradientUnits="userSpaceOnUse"><stop stop-color="#E8E7E5"/><stop offset="1" stop-color="#fff"/></linearGradient><linearGradient id="paint3_linear" x1="9.902" y1="29.964" x2="43.76" y2="29.964" gradientUnits="userSpaceOnUse"><stop stop-color="#E8E7E5"/><stop offset="1" stop-color="#fff"/></linearGradient></defs></svg>