<svg width="55" height="77" viewBox="0 0 55 77" fill="none" xmlns="http://www.w3.org/2000/svg">
<path d="M55 14.993H0L5.15625 70.2487L27.4969 76.5103L49.8376 70.2487L55 14.993Z" fill="#E6A329"/>
<path d="M27.4971 19.4948V71.8279L45.5981 66.7598L50.0019 19.4948H27.4971Z" fill="#F1BF22"/>
<path d="M41.8969 26.2737H14.0656L12.127 46.962L12.1672 46.8335H35.8116L35.0405 55.5863L27.4966 57.7316L19.8412 55.5526L19.3829 50.255H12.4335L13.4245 60.841L27.4966 64.7889L41.5749 60.841L43.5135 40.0639H18.4197L18.7418 33.1412H36.1523L36.4124 37.1075H43.4237L41.8969 26.2737Z" fill="white"/>
<path d="M27.5028 26.2737H14.0656L12.127 46.962L12.1672 46.8335H27.5028V40.0853H19.3983L19.7204 33.1626H27.5028V26.2737ZM19.3983 50.2551H12.4335L13.4245 60.8349L27.4966 64.7767V57.7378L19.8412 55.5526L19.3983 50.2551Z" fill="#EBEBEB"/>
<path d="M22.149 6.84308H17.2529V10.3167H25.6516V0H22.149V6.84308ZM37.7448 0.0550874H29.2099V3.66638C30.3495 4.79261 30.9441 5.3343 32.6226 6.9655H29.2099V10.2585H37.7448V6.97162L34.332 3.6725H37.7448V0.0550874Z" fill="white"/>
</svg>
