<svg width="100" height="100" viewBox="0 0 100 100" fill="none" xmlns="http://www.w3.org/2000/svg"><g opacity=".6"><path d="M43.688 49.42l-11.47-17.157L20.767 49.42h22.922z" fill="#009FFF"/><path d="M72.797 52.54L60.719 97.772l.093.358L97.36 52.54H72.797z" fill="#C4A2FC"/><path d="M72.797 52.54L60.719 97.772l.093.358L97.36 52.54H72.797z" fill="url(#paint0_linear)"/><path d="M45.406 52.54H20.844L57.39 98.13l.093-.358-12.078-45.234z" fill="#C4A2FC"/><path d="M45.406 52.54H20.844L57.39 98.13l.093-.358-12.078-45.234z" fill="url(#paint1_linear)"/><path d="M46.594 48.172l10.625-15.91-1.032-1.56h-21.25l11.657 17.47zm2.922 1.248h19.172l-9.579-14.35-9.593 14.35zm22.094-1.248l11.656-17.47h-21.25l-1.032 1.56 10.625 15.91zm2.906 1.248h22.921L85.984 32.263 74.516 49.42z" fill="#009FFF"/><path d="M69.563 52.54H48.64l10.468 39.18 10.453-39.18z" fill="#C4A2FC"/><path d="M69.563 52.54H48.64l10.468 39.18 10.453-39.18z" fill="url(#paint2_linear)"/></g><path d="M55.797 14.356l-12.5-12.478a1.642 1.642 0 00-1.11-.452h-37.5a4.692 4.692 0 00-3.314 1.37A4.675 4.675 0 000 6.105v68.63c0 1.241.494 2.431 1.373 3.309a4.692 4.692 0 003.315 1.37h46.874a4.692 4.692 0 003.315-1.37 4.675 4.675 0 001.373-3.309V15.463a1.636 1.636 0 00-.453-1.107zM43.75 6.744l7.172 7.16H43.75v-7.16zm9.375 67.991a1.559 1.559 0 01-1.563 1.56H4.688a1.564 1.564 0 01-1.563-1.56V6.105a1.558 1.558 0 011.563-1.56h35.937v10.918a1.559 1.559 0 001.563 1.56h10.937v57.712z" fill="#fff"/><path d="M11.219 40.186L18.5 28.784a1.558 1.558 0 00-1.64-2.427 1.562 1.562 0 00-.985.742L8.062 39.328a1.558 1.558 0 000 1.653l7.813 12.728a1.563 1.563 0 002.656-1.56L11.22 40.186zm27-13.555a1.56 1.56 0 00-.47 2.153l7.282 11.402-7.297 11.9a1.557 1.557 0 00.668 1.902 1.565 1.565 0 001.989-.341l7.812-12.728a1.558 1.558 0 000-1.654L40.39 27.037a1.562 1.562 0 00-2.171-.406zm-4.547-.141a1.564 1.564 0 00-2.031.874l-9.938 24.957a1.558 1.558 0 00.875 2.028 1.566 1.566 0 002.031-.874l9.938-24.956a1.558 1.558 0 00-.875-2.028z" fill="#fff"/><defs><linearGradient id="paint0_linear" x1="79.039" y1="52.539" x2="79.039" y2="98.131" gradientUnits="userSpaceOnUse"><stop stop-color="#009FFF"/><stop offset=".536" stop-color="#FC466B"/></linearGradient><linearGradient id="paint1_linear" x1="39.164" y1="52.539" x2="39.164" y2="98.131" gradientUnits="userSpaceOnUse"><stop stop-color="#009FFF"/><stop offset=".536" stop-color="#FC466B"/></linearGradient><linearGradient id="paint2_linear" x1="59.102" y1="52.539" x2="59.102" y2="91.721" gradientUnits="userSpaceOnUse"><stop stop-color="#009FFF"/><stop offset=".536" stop-color="#FC466B"/></linearGradient></defs></svg>