<svg width="36" height="36" viewBox="0 0 36 36" fill="none" xmlns="http://www.w3.org/2000/svg">
<path d="M18 36C27.9411 36 36 27.9411 36 18C36 8.05887 27.9411 0 18 0C8.05887 0 0 8.05887 0 18C0 27.9411 8.05887 36 18 36Z" fill="#FC466B"/>
<path d="M6.20264 11.0024V24.9821L13.02 17.964L6.20264 11.0024Z" fill="white"/>
<path d="M29.7971 11.0024V24.9821L23.0137 17.9923L29.7971 11.0024Z" fill="white"/>
<path d="M6.71875 10.3687H29.2367L20.3868 19.5837C19.7569 20.2395 18.887 20.6102 17.9778 20.6102C17.0685 20.6102 16.1986 20.2395 15.5687 19.5837L6.71875 10.3687Z" fill="white"/>
<path d="M20.8973 20.0737C20.138 20.8643 19.0739 21.3178 17.9778 21.3178C16.8816 21.3178 15.8175 20.8645 15.0582 20.0738L13.5571 18.5107L6.71875 25.6311H29.2367L22.3984 18.5107L20.8973 20.0737Z" fill="white"/>
</svg>
