<svg width="204" height="93" viewBox="0 0 204 93" fill="none" xmlns="http://www.w3.org/2000/svg"><g clip-path="url(#clip0)"><path d="M100.66 72.133V22.044h10.951c5.724 0 10.364 4.64 10.364 10.364V61.77c0 5.723-4.64 10.363-10.364 10.363H100.66z" fill="#FC466B" stroke="#FC466B"/><path d="M3.505 46.369v-.023C3.53 21.66 25.122 1.472 51.995 1.472c13.176 0 25.106 4.865 33.831 12.74l1.005-1.113-1.005 1.113c5.165 4.662 9.622 8.04 16.674 8.681v48.198c-3.053.28-5.691.81-8.178 1.806-2.869 1.147-5.451 2.877-8.21 5.406h0c-8.753 8.03-20.801 13-34.118 13h-.025c-26.11.446-48.864-20.409-48.464-44.934z" stroke="url(#paint0_linear)" stroke-width="3"/><path d="M75.356 72.493c-2.443 0-4.62-.548-6.53-1.644a12.57 12.57 0 01-4.463-4.51c-1.065-1.91-1.597-4.04-1.597-6.389s.532-4.463 1.597-6.342a12.095 12.095 0 014.463-4.51c1.91-1.127 4.087-1.691 6.53-1.691 2.443 0 4.604.564 6.483 1.691a11.652 11.652 0 014.463 4.51c1.096 1.88 1.644 3.993 1.644 6.342 0 2.35-.548 4.479-1.644 6.39-1.065 1.878-2.552 3.382-4.463 4.51-1.879 1.095-4.04 1.644-6.483 1.644zm0-3.71c1.66 0 3.1-.392 4.322-1.175a8.17 8.17 0 002.866-3.148c.689-1.347 1.033-2.85 1.033-4.51 0-1.66-.344-3.148-1.033-4.463-.69-1.347-1.644-2.411-2.866-3.194-1.221-.783-2.662-1.175-4.322-1.175-1.628 0-3.07.392-4.322 1.175-1.221.783-2.177 1.847-2.866 3.194-.689 1.316-1.033 2.803-1.033 4.463 0 1.66.344 3.163 1.033 4.51a8.171 8.171 0 002.866 3.148c1.253.783 2.694 1.174 4.322 1.174zM91.14 71.93V37.635h4.322V71.93H91.14zm20.073.563c-2.192 0-4.134-.438-5.825-1.315a10.348 10.348 0 01-3.947-3.758c-.97-1.597-1.456-3.461-1.456-5.59V47.97h4.322v13.812c0 1.441.313 2.694.94 3.759a6.872 6.872 0 002.537 2.395 7.123 7.123 0 003.382.846 6.953 6.953 0 003.383-.846 6.437 6.437 0 002.536-2.395c.658-1.065.987-2.318.987-3.759V47.971h4.322v13.858c0 2.13-.485 3.994-1.456 5.59-.94 1.598-2.255 2.85-3.947 3.76-1.691.876-3.617 1.314-5.778 1.314zm23.913-.563c-2.129 0-3.805-.611-5.026-1.832-1.191-1.222-1.786-2.882-1.786-4.98V51.682h-4.134V47.97h4.134v-6.013h4.322v6.014h8.222v3.71h-8.222v13.155c0 1.034.282 1.863.846 2.49.595.595 1.409.892 2.443.892h4.839v3.712h-5.638zm8.608 0V47.97h4.369v23.96h-4.369zm2.208-27.765c-.814 0-1.503-.282-2.067-.845-.564-.595-.846-1.285-.846-2.067 0-.783.282-1.457.846-2.02a2.739 2.739 0 012.067-.893c.783 0 1.456.297 2.02.892.595.564.893 1.238.893 2.02 0 .783-.298 1.473-.893 2.068-.564.563-1.237.845-2.02.845zm17.912 28.328c-2.443 0-4.619-.548-6.53-1.644a12.569 12.569 0 01-4.463-4.51c-1.065-1.91-1.597-4.04-1.597-6.389s.532-4.463 1.597-6.342a12.094 12.094 0 014.463-4.51c1.911-1.127 4.087-1.691 6.53-1.691 2.443 0 4.604.564 6.483 1.691a11.65 11.65 0 014.463 4.51c1.096 1.88 1.645 3.993 1.645 6.342 0 2.35-.549 4.479-1.645 6.39-1.065 1.878-2.552 3.382-4.463 4.51-1.879 1.095-4.04 1.644-6.483 1.644zm0-3.71c1.66 0 3.101-.392 4.322-1.175a8.167 8.167 0 002.866-3.148c.689-1.347 1.034-2.85 1.034-4.51 0-1.66-.345-3.148-1.034-4.463-.689-1.347-1.644-2.411-2.866-3.194-1.221-.783-2.662-1.175-4.322-1.175-1.628 0-3.069.392-4.322 1.175-1.221.783-2.176 1.847-2.866 3.194-.689 1.316-1.033 2.803-1.033 4.463 0 1.66.344 3.163 1.033 4.51a8.183 8.183 0 002.866 3.148c1.253.783 2.694 1.174 4.322 1.174zm15.784 3.147V58.07c0-2.13.47-3.993 1.409-5.59.971-1.598 2.302-2.835 3.994-3.712 1.691-.908 3.617-1.362 5.778-1.362 2.192 0 4.118.454 5.778 1.362 1.692.877 3.007 2.114 3.947 3.712.97 1.597 1.456 3.46 1.456 5.59v13.86h-4.322V58.118c0-1.44-.329-2.678-.987-3.711a6.338 6.338 0 00-2.537-2.443 6.855 6.855 0 00-3.335-.846 7.12 7.12 0 00-3.382.846c-1.034.564-1.88 1.378-2.537 2.443-.627 1.033-.94 2.27-.94 3.711V71.93h-4.322zM17.055 44.423c-2.318 0-4.4-.502-6.249-1.504-1.847-1.002-3.32-2.443-4.416-4.322-1.064-1.91-1.597-4.197-1.597-6.859V9.564h4.322v14.61h.094c.783-1.44 1.942-2.599 3.476-3.476 1.535-.908 3.226-1.362 5.074-1.362 2.193 0 4.166.501 5.92 1.503 1.785 1.003 3.179 2.428 4.18 4.275 1.034 1.817 1.551 3.978 1.551 6.483 0 2.631-.532 4.917-1.597 6.86-1.034 1.91-2.49 3.382-4.37 4.415-1.847 1.034-3.977 1.55-6.388 1.55zm0-3.712c1.472 0 2.803-.36 3.993-1.08 1.221-.72 2.192-1.738 2.912-3.054.72-1.315 1.081-2.881 1.081-4.698 0-1.754-.36-3.288-1.08-4.604-.69-1.315-1.645-2.349-2.866-3.1-1.19-.752-2.521-1.128-3.993-1.128-1.473 0-2.82.36-4.04 1.08-1.19.721-2.146 1.755-2.866 3.101-.69 1.316-1.034 2.882-1.034 4.698 0 1.785.345 3.336 1.034 4.651.72 1.316 1.675 2.333 2.865 3.054 1.19.72 2.522 1.08 3.994 1.08zm15.535 3.148v-23.96h4.368v23.96H32.59zm2.207-27.765c-.814 0-1.503-.282-2.067-.845-.564-.595-.845-1.284-.845-2.067 0-.783.281-1.457.845-2.02a2.738 2.738 0 012.067-.893c.783 0 1.457.297 2.02.893.595.563.893 1.237.893 2.02 0 .783-.298 1.472-.893 2.067-.563.563-1.237.845-2.02.845z" fill="#fff"/><path d="M46.07 43.859c-1.474 0-2.712-.517-3.716-1.55-1.003-1.034-1.505-2.255-1.505-3.665 0-1.942.956-3.523 2.87-4.745l11.053-7c.47-.281.768-.563.894-.845a1.81 1.81 0 00.235-.893c0-.407-.157-.767-.47-1.08-.314-.313-.722-.47-1.224-.47H42.025V19.9h13.5c1.442 0 2.65.516 3.621 1.55 1.004 1.002 1.505 2.224 1.505 3.664 0 1.942-.94 3.524-2.822 4.745l-11.053 7c-.47.282-.784.564-.941.846a2.16 2.16 0 00-.188.892c0 .407.157.768.47 1.08.314.314.737.47 1.27.47h12.841v3.712H46.07zm0 4.111c-1.474 0-2.712.517-3.716 1.55-1.003 1.034-1.505 2.256-1.505 3.665 0 1.942.956 3.524 2.87 4.745l11.052 7c.47.282.768.564.894.845.156.282.235.58.235.893 0 .407-.157.767-.47 1.08-.314.314-.722.47-1.223.47H42.025v3.712h13.498c1.443 0 2.65-.517 3.622-1.55 1.003-1.003 1.505-2.224 1.505-3.665 0-1.942-.94-3.523-2.822-4.745l-11.053-7c-.47-.282-.784-.563-.94-.845a2.17 2.17 0 01-.189-.893c0-.407.157-.767.47-1.08.314-.314.738-.47 1.27-.47h12.84V47.97H46.07z" fill="#FC466B"/></g><defs><linearGradient id="paint0_linear" x1="2" y1="46.391" x2="104" y2="46.391" gradientUnits="userSpaceOnUse"><stop stop-color="#16BFFD"/><stop offset=".714" stop-color="#FC466B"/></linearGradient><clipPath id="clip0"><path fill="#fff" d="M0 0h204v93H0z"/></clipPath></defs></svg>