<svg width="100" height="100" viewBox="0 0 100 100" fill="none" xmlns="http://www.w3.org/2000/svg"><g opacity=".6"><path d="M95.875 51.563H90.25a32.624 32.624 0 00-3.75-9.188l4-4a1.563 1.563 0 000-2.203l-8.844-8.844a1.563 1.563 0 00-2.203 0l-4 4a32.625 32.625 0 00-9.266-3.828v-5.625a1.563 1.563 0 00-1.562-1.563h-12.5a1.563 1.563 0 00-1.563 1.563V27.5a32.625 32.625 0 00-9.187 3.828l-4-4a1.563 1.563 0 00-2.203 0l-8.844 8.844a1.562 1.562 0 000 2.203l4 4a32.625 32.625 0 00-3.828 9.188h-5.625a1.563 1.563 0 00-1.563 1.562v12.5a1.563 1.563 0 001.563 1.563H26.5a32.625 32.625 0 003.828 9.187l-4 4a1.563 1.563 0 000 2.203l8.844 8.844a1.562 1.562 0 002.203 0l4-3.922a32.624 32.624 0 009.188 3.75v5.625a1.563 1.563 0 001.562 1.563h12.5a1.563 1.563 0 001.563-1.563V91.25a32.624 32.624 0 009.187-3.75l4 4a1.563 1.563 0 002.203 0l8.844-8.844a1.563 1.563 0 000-2.203L86.5 76.375a32.624 32.624 0 003.75-9.188h5.625a1.563 1.563 0 001.563-1.562v-12.5a1.563 1.563 0 00-1.563-1.563zm-37.5 20.312a12.5 12.5 0 110-25 12.5 12.5 0 010 25z" fill="#C4A2FC"/><path d="M95.875 51.563H90.25a32.624 32.624 0 00-3.75-9.188l4-4a1.563 1.563 0 000-2.203l-8.844-8.844a1.563 1.563 0 00-2.203 0l-4 4a32.625 32.625 0 00-9.266-3.828v-5.625a1.563 1.563 0 00-1.562-1.563h-12.5a1.563 1.563 0 00-1.563 1.563V27.5a32.625 32.625 0 00-9.187 3.828l-4-4a1.563 1.563 0 00-2.203 0l-8.844 8.844a1.562 1.562 0 000 2.203l4 4a32.625 32.625 0 00-3.828 9.188h-5.625a1.563 1.563 0 00-1.563 1.562v12.5a1.563 1.563 0 001.563 1.563H26.5a32.625 32.625 0 003.828 9.187l-4 4a1.563 1.563 0 000 2.203l8.844 8.844a1.562 1.562 0 002.203 0l4-3.922a32.624 32.624 0 009.188 3.75v5.625a1.563 1.563 0 001.562 1.563h12.5a1.563 1.563 0 001.563-1.563V91.25a32.624 32.624 0 009.187-3.75l4 4a1.563 1.563 0 002.203 0l8.844-8.844a1.563 1.563 0 000-2.203L86.5 76.375a32.624 32.624 0 003.75-9.188h5.625a1.563 1.563 0 001.563-1.562v-12.5a1.563 1.563 0 00-1.563-1.563zm-37.5 20.312a12.5 12.5 0 110-25 12.5 12.5 0 010 25z" fill="url(#paint0_linear)"/></g><path d="M73.438 1.563H4.688A4.687 4.687 0 000 6.25V75a4.688 4.688 0 004.688 4.688h68.75A4.688 4.688 0 0078.124 75V6.25a4.688 4.688 0 00-4.688-4.688zM75 75a1.563 1.563 0 01-1.563 1.563H4.688A1.563 1.563 0 013.125 75V15.625H75V75zm0-62.5H3.125V6.25a1.562 1.562 0 011.563-1.563h68.75A1.563 1.563 0 0175 6.25v6.25z" fill="#fff"/><path d="M43.75 54.688h20.313a1.563 1.563 0 001.562-1.563v-18.75a1.563 1.563 0 00-1.563-1.563H43.75a1.563 1.563 0 00-1.563 1.563v18.75a1.563 1.563 0 001.563 1.563zm1.563-18.75H62.5v15.624H45.312V35.938zm-31.25 4.687h20.312a1.563 1.563 0 001.563-1.563V21.875a1.563 1.563 0 00-1.563-1.563H14.062a1.563 1.563 0 00-1.562 1.563v17.188a1.563 1.563 0 001.563 1.562zm1.562-17.188h17.188V37.5H15.625V23.437zM43.75 62.5h20.313a1.563 1.563 0 000-3.125H43.75a1.563 1.563 0 000 3.125zM14.063 48.438h20.312a1.563 1.563 0 000-3.126H14.062a1.563 1.563 0 000 3.126zM43.75 71.875h20.313a1.563 1.563 0 000-3.125H43.75a1.563 1.563 0 000 3.125zM14.063 57.813h20.312a1.563 1.563 0 000-3.126H14.062a1.563 1.563 0 000 3.126z" fill="#fff"/><defs><linearGradient id="paint0_linear" x1="58.375" y1="20.313" x2="58.375" y2="98.438" gradientUnits="userSpaceOnUse"><stop stop-color="#009FFF"/><stop offset=".833" stop-color="#FC466B"/></linearGradient></defs></svg>