<svg width="50" height="40" viewBox="0 0 50 40" fill="none" xmlns="http://www.w3.org/2000/svg"><path d="M41.239 30.27V10.069h4.252a4.009 4.009 0 014.009 4.008v12.186a4.009 4.009 0 01-4.009 4.009H41.24z" fill="#FC466B" stroke="#FC466B"/><path d="M1.002 19.877v-.016C1.012 9.851 9.778 1.615 20.75 1.615c5.375 0 10.236 1.984 13.788 5.19l.666-.738-.666.738c2.078 1.875 3.94 3.308 6.795 3.662v19.322c-1.15.126-2.177.349-3.157.74-1.243.498-2.352 1.245-3.522 2.317h0c-3.563 3.268-8.472 5.296-13.904 5.296h-.017C10.08 38.324.84 29.814 1.002 19.877z" stroke="url(#paint0_linear)" stroke-width="2"/><path d="M18.555 18.717a2.07 2.07 0 01-1.538-.635 2.071 2.071 0 01-.623-1.5c0-.796.395-1.444 1.187-1.944l4.576-2.867c.194-.116.318-.231.37-.347a.735.735 0 00.097-.365.605.605 0 00-.195-.443.69.69 0 00-.506-.192H16.88v-1.52h5.588c.597 0 1.097.211 1.5.634.415.41.622.911.622 1.501 0 .796-.39 1.444-1.168 1.944l-4.575 2.867c-.195.115-.325.23-.39.346a.882.882 0 00-.078.366c0 .167.065.314.195.442.13.129.305.193.526.193h5.315v1.52h-5.86zm0 1.684a2.07 2.07 0 00-1.538.635 2.072 2.072 0 00-.623 1.501c0 .796.395 1.443 1.187 1.944l4.575 2.867c.195.115.318.23.37.346a.735.735 0 01.097.366.605.605 0 01-.194.442.69.69 0 01-.506.193H16.88v1.52h5.588c.597 0 1.096-.212 1.499-.635.415-.41.623-.91.623-1.501 0-.795-.39-1.443-1.168-1.944l-4.575-2.867c-.195-.115-.325-.23-.39-.346a.881.881 0 01-.078-.366c0-.166.065-.314.195-.442.13-.129.305-.193.526-.193h5.314v-1.52h-5.86z" fill="#FC466B"/><defs><linearGradient id="paint0_linear" x1="0" y1="19.88" x2="42.333" y2="19.88" gradientUnits="userSpaceOnUse"><stop stop-color="#16BFFD"/><stop offset=".714" stop-color="#FC466B"/></linearGradient></defs></svg>