<svg width="20" height="20" viewBox="0 0 20 20" fill="none" xmlns="http://www.w3.org/2000/svg">
<path d="M15.8333 3.33333H4.16667C3.72464 3.33333 3.30072 3.50892 2.98816 3.82148C2.67559 4.13404 2.5 4.55797 2.5 4.99999V15C2.5 15.442 2.67559 15.8659 2.98816 16.1785C3.30072 16.4911 3.72464 16.6667 4.16667 16.6667H7.5V15H4.16667V6.66666H15.8333V15H12.5V16.6667H15.8333C16.75 16.6667 17.5 15.9167 17.5 15V4.99999C17.5 4.55797 17.3244 4.13404 17.0118 3.82148C16.6993 3.50892 16.2754 3.33333 15.8333 3.33333ZM10 8.33333L6.66667 11.6667H9.16667V16.6667H10.8333V11.6667H13.3333L10 8.33333Z" fill="white"/>
</svg>
