<svg width="53" height="75" viewBox="0 0 53 75" fill="none" xmlns="http://www.w3.org/2000/svg">
<g clip-path="url(#clip0)">
<path d="M4.67285 0H8.07408V3.33984H11.2091V0H14.6104V10.1074H11.2091V6.73828H8.10366V10.1074H4.67285V0ZM19.1059 3.36914H16.1039V0H25.5239V3.36914H22.5071V10.1074H19.1059V3.36914ZM27.0174 0H30.5813L32.7699 3.55957L34.9586 0H38.5225V10.1074H35.1212V5.09766L32.7404 8.73047L30.3595 5.09766V10.1074H27.0174V0ZM40.2083 0H43.6095V6.76758H48.4304V10.1074H40.2083" fill="white"/>
<path d="M4.55483 68.9941L-0.325195 14.7363H53.3255L48.4455 68.9648L26.4558 75" fill="#E44D26"/>
<path d="M26.5 70.3857V19.1895H48.4305L44.2455 65.4785" fill="#F16529"/>
<path d="M9.6416 25.8252H26.4999V32.4756H17.006L17.6271 39.2871H26.4999V45.9229H11.4753L9.6416 25.8252ZM11.7711 49.2627H18.5144L18.9876 54.5801L26.4999 56.5723V63.5156L12.7175 59.707" fill="#EBEBEB"/>
<path d="M43.2994 25.8252H26.4707V32.4756H42.6783L43.2994 25.8252ZM42.072 39.2871H26.4707V45.9375H34.752L33.9682 54.5801L26.4707 56.5723V63.4864L40.2235 59.7071" fill="white"/>
</g>
<defs>
<clipPath id="clip0">
<rect width="53" height="75" fill="white"/>
</clipPath>
</defs>
</svg>
