<svg width="36" height="36" viewBox="0 0 36 36" fill="none" xmlns="http://www.w3.org/2000/svg"><path d="M18 36c9.941 0 18-8.059 18-18S27.941 0 18 0 0 8.059 0 18s8.059 18 18 18z" fill="#46B51D"/><path d="M24.58 21.137a1.691 1.691 0 00-1.906.005l-.826.567a2.577 2.577 0 01-3.03-.084 28.245 28.245 0 01-2.385-2.058 28.262 28.262 0 01-2.059-2.386 2.577 2.577 0 01-.083-3.029l.567-.826c.394-.574.396-1.33.005-1.907l-2.365-3.485a2.293 2.293 0 00-2.957-.748 4.443 4.443 0 00-2.004 5.75 31.993 31.993 0 005.447 8.397l1.683 1.683a31.998 31.998 0 008.397 5.447 4.443 4.443 0 005.75-2.003 2.293 2.293 0 00-.748-2.958l-3.485-2.365z" fill="#fff"/></svg>